<svg xmlns="http://www.w3.org/2000/svg" viewBox="0 0 80 80"><path d="M66.87 13.13C59.993 6.253 50.494 2 40 2v38l26.87-26.87z" fill="#b53838"/><path d="M78 40c0-9.725-3.71-19.45-11.13-26.87L40 40h38z" fill="#b86e3e"/><path d="M66.87 66.87C73.747 59.993 78 50.494 78 40H40l26.87 26.87z" fill="#b88f28"/><path d="M40 78c9.725 0 19.45-3.71 26.87-11.13L40 40v38z" fill="#51966c"/><path d="M13.13 66.87C20.007 73.747 29.506 78 40 78V40L13.13 66.87z" fill="#5682ba"/><path d="M2 40c0 9.725 3.71 19.45 11.13 26.87L40 40H2z" fill="#4965a8"/><path d="M13.13 13.13C6.253 20.007 2 29.506 2 40h38L13.13 13.13z" fill="#7e5d9e"/><path d="M40 2c-9.725 0-19.45 3.71-26.87 11.13L40 40V2z" fill="#914683"/><path d="M66.163 13.837C59.467 7.141 50.217 3 40 3v37l26.163-26.163z" fill="#eb6060"/><path d="M77 40c0-9.469-3.612-18.938-10.837-26.163L40 40h37z" fill="#f08a48"/><path d="M66.163 66.163C72.859 59.467 77 50.217 77 40H40l26.163 26.163z" fill="#ffdf59"/><path d="M40 77c9.469 0 18.938-3.612 26.163-10.837L40 40v37z" fill="#76d67d"/><path d="M13.837 66.163C20.533 72.859 29.783 77 40 77V40L13.837 66.163z" fill="#669fed"/><path d="M3 40c0 9.469 3.612 18.938 10.837 26.163L40 40H3z" fill="#6f85e8"/><path d="M13.837 13.837C7.141 20.533 3 29.783 3 40h37L13.837 13.837z" fill="#b05de3"/><path d="M40 3c-9.469 0-18.938 3.612-26.163 10.837L40 40V3z" fill="#dc5de3"/></svg>