<svg xmlns="http://www.w3.org/2000/svg" viewBox="0 0 80 80"><path d="M4.502 75.5C4.769 36.469 36.469 4.769 75.5 4.502v9c-34.068.267-61.731 27.93-61.998 61.998h-9z" fill="#f78f8f"/><path d="M75 5.007v8.001C41.051 13.537 13.537 41.051 13.008 75H5.007C5.54 36.644 36.644 5.54 75 5.007M76 4C36.236 4 4 36.235 4 76h10c0-34.242 27.758-62 62-62V4z" fill="#c74343"/><path d="M12 76h9.846c.049-.078.11-.157.16-.235.127-29.662 24.166-53.677 53.839-53.761.049-.052.106-.106.156-.158V12C40.654 12 12 40.654 12 76z" fill="#ffd7bd"/><path d="M75 22.028c.282-.005.561-.023.844-.024.049-.052.106-.106.156-.158V12c-.335 0-.666.02-1 .025v10.003zM22.029 75H12.025c-.005.334-.025.665-.025 1h9.846c.049-.078.11-.157.16-.235.001-.257.018-.509.023-.765z" fill="#ffc49c"/><path d="M20 76h10c0-25.405 20.595-46 46-46V20c-30.928 0-56 25.072-56 56z" fill="#fff9de"/><path d="M75 30.025c.334-.007.665-.025 1-.025V20c-.335 0-.666.019-1 .025v10zM20.025 75c-.006.334-.025.665-.025 1h10c0-.335.018-.666.025-1h-10z" fill="#ffeea3"/><path d="M28 76h10c0-.411.023-.837.064-1.274.656-19.75 16.354-35.646 36.019-36.629A20.54 20.54 0 0 1 76 38V28c-26.51 0-48 21.49-48 48z" fill="#bae0bd"/><path d="M28.025 75c-.007.334-.025.665-.025 1h10c0-.323.024-.661.05-1H28.025zM75 38.051c.333-.019.667-.051 1-.051V28c-.335 0-.666.018-1 .025v10.026z" fill="#99c99e"/><path d="M36 76h10c0-16.569 13.432-30 30-30V36c-22.091 0-40 17.908-40 40z" fill="#c2e8ff"/><path d="M75 46.025c.333-.011.665-.025 1-.025V36c-.335 0-.667.017-1 .025v10zM36.025 75c-.008.333-.025.665-.025 1h10c0-.335.014-.667.025-1h-10z" fill="#8bb7f0"/><path d="M44 76h9c0-12.703 10.297-23 23-23v-9c-17.673 0-32 14.327-32 32z" fill="#dcd5f2"/><path d="M75 52.021C62.56 52.533 52.533 62.56 52.021 75h-7.995c-.011.333-.026.665-.026 1h9c0-12.703 10.297-23 23-23v-9c-.335 0-.667.015-1 .025v7.996z" fill="#a693bc"/></svg>